<?xml version="1.0" standalone="no"?><!DOCTYPE svg PUBLIC "-//W3C//DTD SVG 1.1//EN" "http://www.w3.org/Graphics/SVG/1.1/DTD/svg11.dtd"><svg class="icon" width="48px" height="48.00px" viewBox="0 0 1024 1024" version="1.1" xmlns="http://www.w3.org/2000/svg"><path fill="#de8100" d="M512.325632 0.868352c-282.463232 0-511.478784 229.016576-511.478784 511.479808 0 282.46016 229.015552 511.47776 511.478784 511.47776 282.462208 0 511.478784-229.016576 511.478784-511.47776C1023.804416 229.885952 794.78784 0.868352 512.325632 0.868352zM512.325632 960.463872c-247.471104 0-448.11776-200.717312-448.11776-448.114688 0-247.3984 200.645632-448.119808 448.11776-448.119808 247.3984 0 448.118784 200.721408 448.118784 448.119808C960.444416 759.747584 759.723008 960.463872 512.325632 960.463872zM320.521216 704.728064l127.869952 0 0-384.75776L320.521216 319.970304 320.521216 704.728064zM576.260096 704.728064l127.869952 0 0-384.75776L576.260096 319.970304 576.260096 704.728064z" /></svg>